<?xml version="1.0" encoding="utf-8"?>
<!-- Generator: Adobe Illustrator 25.4.1, SVG Export Plug-In . SVG Version: 6.00 Build 0)  -->
<svg version="1.1" id="Ebene_1" xmlns="http://www.w3.org/2000/svg" xmlns:xlink="http://www.w3.org/1999/xlink" x="0px" y="0px"
	 width="296px" height="56.6px" viewBox="0 0 296 56.6" style="enable-background:new 0 0 296 56.6;" xml:space="preserve">
<style type="text/css">
	.st0{fill:none;stroke:#574193;stroke-width:5.4628;stroke-linecap:round;stroke-miterlimit:10;}
	.st1{fill:#574193;}
	.st2{fill:#3B4D9C;}
	.st3{fill:#D01B17;}
	.st4{fill:#B03C8E;}
	.st5{fill:#574193;stroke:#574193;stroke-width:0.25;stroke-miterlimit:10;}
</style>
<path class="st0" d="M26.4,29c0,0,27-5.1,38.5,0.3"/>
<path class="st1" d="M50.2,0.5c3,0,5.3,2.4,5.3,5.3c0,3-2.4,5.3-5.3,5.3c-3,0-5.3-2.4-5.3-5.3C44.9,2.9,47.2,0.5,50.2,0.5z"/>
<path class="st1" d="M53.5,51.6c0,2.2-1.2,3.5-3,3.5c-1.9,0-3-1.4-3-3.5V17.9c0-2.2,1.2-3.5,3-3.5c1.9,0,3,1.4,3,3.5V51.6z"/>
<path d="M214.9,44.7c0,3.8,0.1,7.1,0.3,10h-5.9l-0.4-6h-0.1c-1.7,2.9-5.6,6.8-12.1,6.8c-5.7,0-12.6-3.2-12.6-16V18.1h6.6v20.2
	c0,6.9,2.1,11.6,8.2,11.6c4.5,0,7.6-3.1,8.8-6c0.4-1,0.6-2.2,0.6-3.4V18.1h6.6L214.9,44.7L214.9,44.7z"/>
<path d="M225.9,1.1h6.6v53.6h-6.6V1.1z"/>
<path d="M243.8,28c0-3.8-0.1-6.9-0.3-9.9h5.8l0.3,5.9h0.2c2-3.5,5.4-6.7,11.5-6.7c5,0,8.8,3,10.3,7.3h0.1c1.1-2,2.6-3.6,4.1-4.8
	c2.2-1.7,4.6-2.6,8.1-2.6c4.8,0,12,3.2,12,15.9v21.5h-6.5V34c0-7-2.6-11.3-7.9-11.3c-3.8,0-6.7,2.8-7.9,6c-0.3,0.9-0.5,2.1-0.5,3.3
	v22.6h-6.5V32.8c0-5.8-2.6-10-7.6-10c-4.2,0-7.2,3.3-8.2,6.6c-0.4,1-0.5,2.1-0.5,3.2v22.1h-6.5L243.8,28L243.8,28z"/>
<path class="st2" d="M35.1,17.6c0.7-1.7,1.2-3.2,3.5-3.2c1.5,0,2.5,1,2.5,2c0,0.7-0.1,1.2-0.4,1.9l-13.9,34
	c-0.6,1.6-1.3,2.7-3.3,2.7c-1.9,0-2.6-1.1-3.3-2.7l-13.9-34C6.1,17.7,6,17.1,6,16.4c0-1,1-2,2.5-2c2.2,0,2.8,1.5,3.5,3.2l11.5,29.1
	h0.1L35.1,17.6z"/>
<path class="st3" d="M125.7,20.9h-0.1l-12.2,30.7c-0.7,1.8-1.3,3.4-3.7,3.4c-1.6,0-2.6-1.1-2.6-2.1c0-0.7,0.1-1.3,0.4-2L122.1,17
	c0.7-1.7,1.4-2.8,3.5-2.8c2,0,2.8,1.1,3.5,2.8l14.7,33.9c0.3,0.7,0.4,1.3,0.4,2c0,1.1-1,2.1-2.6,2.1c-2.4,0-2.9-1.5-3.7-3.4
	L125.7,20.9z"/>
<path class="st3" d="M126,0.3c3.2,0,5.8,2.6,5.8,5.8c0,3.2-2.6,5.8-5.8,5.8c-3.2,0-5.8-2.6-5.8-5.8C120.3,2.8,122.8,0.3,126,0.3z"/>
<path class="st4" d="M101.3,0.2c3.2,0,5.8,2.6,5.8,5.8s-2.6,5.8-5.8,5.8c-3.2,0-5.8-2.6-5.8-5.8S98.1,0.2,101.3,0.2z"/>
<path class="st2" d="M6.3,0.7c3.2,0,5.8,2.6,5.8,5.8s-2.6,5.8-5.8,5.8c-3.2,0-5.8-2.6-5.8-5.8S3.1,0.7,6.3,0.7z"/>
<path class="st3" d="M159,55.1c-0.7,1-2.1,1-3.7-0.1c-1.6-1.1-2.1-2.4-1.4-3.4l10.7-15.9c0.7-1,2.1-1,3.7,0.1
	c1.6,1.1,2.1,2.4,1.4,3.4L159,55.1z"/>
<path class="st3" d="M169.7,37c0.7,1,0.1,2.3-1.5,3.4c-1.6,1-3,1-3.7,0l-10.5-16.2c-0.7-1-0.1-2.3,1.5-3.4c1.6-1,3-1,3.7,0L169.7,37
	z"/>
<path class="st3" d="M119.2,39.8c-2.7,0-4.4-1.1-4.4-2.9c0-1.8,1.7-2.9,4.4-2.9h41.7c2.7,0,4.4,1.1,4.4,2.9c0,1.8-1.7,2.9-4.4,2.9
	H119.2z"/>
<path class="st4" d="M70.3,27.1L66,52.8c-0.3,1.8-1.6,2.2-3.2,2.2C61,55,60,54,60,52.4c0-0.6,0.1-1.3,0.3-2.3L66.9,18
	c0.6-2.9,2.5-3.9,4.7-3.9c2.4,0,3.6,0.8,4.3,2.7l10.3,29.1h0.1l10.3-29.1c0.7-1.9,2-2.7,4.3-2.7c2.2,0,4.1,1,4.7,3.9l6.6,32.1
	c0.2,1,0.3,1.7,0.3,2.3c0,1.6-0.9,2.6-2.8,2.6c-1.6,0-2.9-0.4-3.2-2.2l-5.6-32.1h-0.1L89.3,52.9c-0.6,1.7-1.7,2.1-3,2.1
	c-1.4,0-2.4-0.4-3-2.1L71.7,20.7h-0.1L70.3,27.1"/>
<path class="st5" d="M70.2,28.4c0,0,1.3,0.5,2.7,2c1.2,1.3,2,3.2,1.7,5c-0.3,1.8-0.6,2.4-1.4,3.5c-1.9,2.5-4.7,2.5-4.7,2.5
	s-4.1-0.1-5.4-0.5s-1.7-0.7-1.8-1.7c-0.1-1-0.1-2.6,1.2-3.1c1.3-0.6,3.7-0.2,5.1-0.2c1.1,0,1.7-1.7,1.7-1.7l0.2-1.2L70.2,28.4z"/>
</svg>
