<?xml version="1.0" standalone="no"?>
<!DOCTYPE svg PUBLIC "-//W3C//DTD SVG 20010904//EN"
 "http://www.w3.org/TR/2001/REC-SVG-20010904/DTD/svg10.dtd">
<svg version="1.0" xmlns="http://www.w3.org/2000/svg"
 width="2736.000000pt" height="2736.000000pt" viewBox="0 0 2736.000000 2736.000000"
 preserveAspectRatio="xMidYMid meet">
<metadata>
Created by potrace 1.14, written by Peter Selinger 2001-2017
</metadata>
<g transform="translate(0.000000,2736.000000) scale(0.100000,-0.100000)"
fill="#000000" stroke="none">
<path d="M16258 18145 c-3 -4 -34 -8 -69 -11 -190 -13 -346 -70 -494 -179 -83
-61 -215 -200 -215 -225 0 -6 -3 -10 -8 -10 -8 0 -14 -11 -56 -96 -44 -92 -57
-123 -62 -152 -3 -15 -7 -34 -10 -42 -7 -16 -8 -25 -21 -115 -13 -93 -7 -210
16 -307 5 -21 7 -38 4 -38 -3 0 1 -7 8 -17 8 -9 13 -19 12 -22 -8 -18 88 -222
117 -251 3 -3 17 -22 33 -42 37 -51 114 -128 162 -163 22 -17 42 -32 45 -35 6
-6 33 -21 105 -60 95 -52 222 -89 335 -97 36 -3 76 -6 90 -7 14 -1 30 2 37 6
6 5 14 5 18 -2 3 -6 12 -7 18 -3 7 4 25 8 42 9 16 1 41 5 55 8 62 14 80 17 85
17 3 -1 19 6 36 15 17 8 33 13 36 10 3 -3 12 1 20 9 8 8 23 15 34 15 10 0 19
3 19 8 0 4 15 14 33 21 36 16 103 58 128 81 9 8 35 30 58 49 49 40 136 146
177 216 156 262 171 596 40 869 -42 87 -86 155 -132 206 -18 19 -41 44 -51 55
-10 12 -40 39 -68 60 -27 22 -52 42 -55 45 -40 40 -234 124 -340 148 -48 10
-50 11 -120 14 -25 1 -48 6 -51 10 -3 5 -8 6 -11 3z"/>
<path d="M20159 18125 c-4 -3 -30 -8 -60 -10 -30 -3 -81 -12 -114 -20 -84 -22
-94 -25 -165 -58 -25 -11 -48 -20 -52 -19 -5 1 -8 -2 -8 -7 0 -5 -10 -13 -22
-17 -12 -3 -26 -11 -32 -15 -6 -5 -33 -26 -61 -47 -27 -20 -72 -59 -98 -87
-53 -54 -137 -166 -137 -182 0 -6 -8 -21 -19 -34 -34 -44 -94 -232 -105 -332
-3 -27 -8 -53 -11 -58 -4 -5 -1 -9 5 -9 7 0 8 -6 2 -17 -17 -36 3 -185 40
-303 45 -144 115 -257 228 -370 105 -105 137 -128 279 -195 63 -31 96 -42 181
-60 8 -2 15 -4 15 -5 0 -6 92 -12 180 -13 104 -1 177 7 220 23 14 5 25 8 25 5
0 -6 100 30 157 57 61 30 123 67 141 85 7 7 16 13 20 13 17 0 138 125 202 207
25 31 87 154 109 213 43 119 55 188 55 325 -1 120 -10 184 -41 280 -67 208
-235 419 -412 515 -25 14 -48 28 -51 31 -4 5 -118 52 -130 55 -3 0 -25 6 -50
13 -66 19 -79 21 -145 27 -33 2 -69 6 -80 7 -11 2 -28 0 -37 -5 -10 -5 -18 -4
-20 3 -2 6 -6 8 -9 4z"/>
<path d="M7870 18069 c-41 -9 -75 -18 -75 -19 0 -1 -7 -3 -16 -5 -35 -6 -147
-61 -204 -100 -76 -50 -171 -144 -218 -215 -20 -30 -40 -59 -45 -65 -27 -36
-87 -202 -96 -270 -3 -22 -8 -58 -12 -80 -3 -22 -6 -44 -6 -50 2 -45 13 -165
18 -185 3 -14 9 -41 14 -60 30 -131 112 -272 225 -386 57 -57 185 -153 185
-138 0 4 8 0 18 -8 9 -8 31 -20 47 -26 17 -6 44 -17 60 -23 38 -15 44 -17 149
-37 64 -13 197 -13 261 -1 28 6 61 11 75 13 14 2 32 6 40 9 8 3 24 8 35 13 11
4 25 8 32 10 21 4 136 65 182 97 93 63 203 185 256 285 76 141 103 256 100
421 -3 134 -7 163 -40 271 -17 54 -82 178 -120 229 -31 42 -157 162 -200 192
-71 49 -188 104 -245 116 -44 9 -55 11 -55 13 0 6 -67 11 -170 14 -87 2 -141
-2 -195 -15z"/>
<path d="M835 18038 c-49 -10 -96 -19 -102 -20 -7 -1 -13 -6 -13 -11 0 -6 -3
-8 -6 -4 -7 7 -86 -22 -95 -36 -3 -5 -10 -9 -15 -9 -23 0 -112 -54 -172 -103
-176 -143 -303 -356 -337 -563 -7 -41 -17 -122 -17 -137 -1 -22 12 -171 17
-195 3 -14 7 -35 9 -48 17 -84 76 -214 142 -312 59 -87 228 -250 260 -250 6 0
17 -7 24 -15 7 -9 34 -25 59 -37 74 -33 131 -57 136 -57 3 0 29 -7 58 -15 105
-30 292 -35 412 -10 17 3 35 7 40 8 6 1 16 5 23 9 6 5 12 6 12 3 0 -10 174 65
224 97 58 36 156 117 195 161 20 22 41 44 46 50 13 13 105 154 105 159 0 3 9
25 20 51 12 25 21 49 21 53 1 5 7 24 15 43 28 71 43 183 40 300 -2 63 -6 126
-9 140 -10 52 -39 155 -47 165 -5 6 -8 14 -8 18 0 23 -72 152 -125 222 -40 54
-187 195 -203 195 -3 0 -24 13 -47 28 -175 118 -440 166 -662 120z"/>
<path d="M11335 15899 c-71 -13 -89 -18 -138 -33 -59 -19 -187 -85 -187 -97 0
-5 -5 -9 -10 -9 -28 0 -167 -171 -184 -227 -4 -13 -12 -23 -17 -23 -5 0 -8 -3
-8 -7 1 -5 0 -11 -1 -15 -1 -5 -3 -11 -4 -15 -6 -27 -30 -90 -39 -100 -5 -7
-7 -13 -4 -13 3 0 2 -14 -3 -32 -5 -17 -12 -49 -16 -72 -3 -22 -7 -44 -10 -47
-2 -4 -6 -24 -10 -45 -3 -22 -15 -77 -26 -124 -11 -47 -21 -98 -24 -115 -2
-16 -6 -40 -9 -52 -3 -13 -7 -33 -10 -45 -3 -13 -7 -34 -10 -48 -5 -26 -22
-110 -30 -145 -5 -22 -14 -67 -21 -105 -2 -14 -7 -36 -10 -50 -4 -14 -8 -34
-10 -45 -3 -22 -5 -28 -35 -171 -11 -55 -22 -109 -25 -121 -22 -120 -45 -213
-50 -213 -2 0 -12 4 -22 9 -28 15 -85 38 -112 46 -14 3 -34 10 -45 15 -22 9
-110 38 -141 45 -10 3 -44 12 -74 21 -52 15 -198 53 -230 59 -8 2 -15 4 -15 5
0 1 -9 3 -20 5 -45 8 -81 14 -105 20 -14 3 -36 8 -50 11 -14 2 -47 9 -75 14
-27 5 -63 12 -80 14 -101 16 -122 19 -145 21 -14 1 -44 5 -67 9 -88 13 -177
23 -353 41 -58 6 -259 21 -318 24 -14 1 -21 5 -16 12 3 6 6 37 5 70 -1 32 -1
67 -1 77 0 118 0 144 -1 150 -1 4 -1 10 0 15 2 8 3 114 1 122 -1 3 -1 30 -1
60 0 30 0 57 1 60 1 3 1 30 1 60 0 30 0 57 -1 60 -3 13 -2 116 1 120 2 2 2 38
-1 80 -3 42 -2 79 2 82 5 2 4 13 -2 23 -7 13 -7 21 0 25 6 4 8 10 6 14 -3 4
-8 38 -11 76 -4 39 -10 75 -13 80 -4 6 -7 12 -7 15 -22 150 -142 291 -295 347
-72 26 -253 31 -291 8 -5 -4 -20 -8 -34 -11 -14 -2 -40 -13 -57 -24 -18 -11
-40 -23 -48 -27 -20 -9 -90 -81 -116 -118 -22 -33 -63 -125 -70 -159 -23 -107
-26 -179 -27 -666 l-2 -535 -70 -1 c-76 -2 -369 -13 -503 -19 -45 -2 -87 -7
-92 -10 -5 -3 -11 -1 -15 5 -4 6 -11 7 -17 4 -6 -4 -34 -8 -62 -9 -67 -4 -215
-14 -286 -20 -30 -3 -89 -8 -130 -11 -41 -3 -91 -7 -110 -9 -19 -1 -77 -6
-127 -10 l-93 -7 51 124 c28 67 58 139 67 158 8 19 16 37 17 40 6 18 26 67 96
238 43 106 79 194 79 196 0 3 10 26 22 53 12 26 22 50 23 53 1 3 7 18 13 33 7
16 12 30 12 31 0 2 6 19 14 37 8 19 13 36 13 39 -1 3 5 17 14 30 46 74 75 277
50 358 -16 52 -55 114 -95 149 -31 27 -111 73 -141 80 -5 1 -28 7 -50 12 -40
10 -208 8 -256 -3 -86 -20 -182 -86 -254 -176 -38 -46 -92 -164 -189 -410 -54
-135 -101 -254 -106 -265 -5 -11 -23 -56 -40 -100 -17 -44 -35 -89 -39 -100
-17 -37 -24 -60 -23 -67 1 -5 -3 -8 -8 -8 -5 0 -9 -3 -9 -7 1 -5 0 -10 -1 -13
-1 -3 -3 -12 -5 -21 -1 -9 -10 -32 -18 -50 -9 -19 -25 -59 -37 -89 -11 -30
-25 -64 -30 -75 -5 -11 -35 -85 -65 -164 -30 -79 -59 -149 -63 -155 -6 -11 -8
-16 -11 -35 0 -5 -29 -12 -63 -16 -35 -4 -70 -9 -78 -10 -27 -5 -115 -17 -145
-20 -16 -2 -41 -6 -55 -8 -14 -3 -61 -11 -105 -18 -44 -6 -91 -14 -105 -16
-14 -2 -38 -5 -55 -8 -16 -2 -43 -6 -60 -9 -16 -4 -46 -8 -65 -11 -19 -3 -46
-7 -60 -10 -14 -3 -41 -8 -60 -11 -103 -16 -175 -32 -221 -50 -124 -49 -229
-170 -260 -301 -12 -51 -18 -151 -9 -168 2 -5 6 -21 8 -35 7 -55 62 -152 119
-208 65 -64 123 -96 213 -120 47 -12 162 -6 271 14 68 13 139 24 157 26 17 1
32 5 32 8 0 3 13 5 28 4 16 -1 44 4 63 10 34 12 71 8 70 -7 -1 -4 -12 -31 -25
-61 -13 -30 -22 -57 -18 -60 3 -3 0 -6 -6 -6 -7 0 -12 -5 -12 -11 0 -11 -76
-210 -104 -274 -8 -16 -17 -41 -21 -55 -4 -14 -18 -49 -31 -78 -13 -29 -24
-59 -24 -67 0 -7 -4 -16 -9 -19 -5 -3 -11 -16 -15 -29 -3 -13 -13 -41 -22 -63
-10 -21 -18 -43 -20 -49 -1 -5 -10 -28 -19 -50 -10 -22 -19 -42 -20 -45 -1 -3
-5 -14 -9 -25 -24 -63 -28 -75 -25 -79 2 -2 -5 -13 -15 -25 -11 -12 -16 -21
-13 -21 5 0 -10 -41 -56 -150 -5 -14 -11 -29 -13 -35 -3 -13 -198 -505 -229
-577 -13 -31 -21 -59 -18 -62 4 -3 1 -6 -5 -6 -7 0 -11 -3 -10 -7 1 -5 -4 -21
-11 -38 -7 -16 -14 -34 -15 -40 -1 -5 -9 -26 -18 -45 -8 -19 -23 -57 -33 -85
-10 -27 -22 -54 -25 -60 -4 -5 -13 -28 -20 -50 -7 -22 -17 -46 -23 -52 -5 -7
-6 -13 -2 -13 4 0 3 -6 -2 -12 -6 -7 -16 -31 -23 -53 -7 -22 -16 -44 -20 -50
-4 -5 -15 -33 -25 -62 -12 -33 -23 -49 -31 -46 -11 4 -26 32 -29 53 0 3 -10
30 -22 60 -43 107 -46 115 -45 123 1 4 -3 7 -10 7 -6 0 -9 3 -6 6 4 3 -21 72
-54 152 -33 81 -61 152 -62 157 -2 6 -8 21 -13 35 -6 14 -19 45 -28 70 -23 60
-29 77 -54 132 -12 26 -21 52 -21 58 0 5 -11 33 -23 62 -13 29 -45 109 -72
178 -26 69 -56 144 -66 167 -11 24 -19 50 -19 58 0 8 -5 15 -10 15 -6 0 -9 3
-8 8 0 4 -2 16 -7 27 -4 11 -37 94 -72 185 -36 91 -71 179 -78 195 -7 17 -21
53 -30 80 -10 28 -22 54 -27 60 -4 5 -8 14 -8 21 0 6 -7 28 -15 48 -8 20 -16
39 -16 43 -1 5 -6 17 -12 28 -6 11 -12 25 -13 30 -1 6 -17 44 -34 85 -17 41
-33 80 -34 85 -2 6 -8 21 -13 35 -50 118 -83 206 -83 217 0 7 -4 13 -8 13 -5
0 -9 6 -10 13 -1 14 -28 89 -47 132 -17 37 -56 136 -59 150 -1 6 -10 28 -20
50 -9 22 -49 121 -87 220 -39 99 -76 194 -84 210 -7 17 -29 73 -50 125 -44
115 -73 188 -85 215 -24 56 -210 531 -211 540 -1 6 -10 28 -22 50 -11 22 -19
41 -18 43 1 1 -6 18 -14 38 -8 20 -15 39 -15 41 0 3 -7 21 -16 41 -9 21 -20
46 -24 57 -4 11 -18 45 -30 75 -12 30 -23 59 -25 65 -1 5 -7 21 -12 35 -6 14
-28 66 -48 115 -48 115 -89 198 -128 255 -36 53 -126 140 -144 140 -7 0 -13 4
-13 8 0 21 -163 62 -255 64 -14 0 -106 -11 -132 -16 -43 -9 -133 -60 -168 -95
-52 -54 -75 -83 -75 -95 0 -6 -6 -22 -13 -36 -20 -39 -13 -222 12 -308 5 -18
10 -34 11 -37 1 -9 12 -40 20 -60 28 -72 46 -116 63 -155 11 -24 20 -49 21
-55 1 -5 7 -19 12 -30 6 -11 26 -58 43 -105 18 -47 42 -105 54 -130 11 -25 24
-54 28 -65 4 -11 14 -36 23 -57 9 -20 16 -38 16 -41 0 -2 10 -26 22 -53 12
-27 23 -52 24 -56 1 -5 2 -9 4 -10 1 -2 3 -10 5 -18 1 -8 14 -40 28 -70 14
-30 39 -91 57 -135 17 -44 37 -93 45 -110 7 -16 30 -73 50 -125 21 -52 46
-114 56 -137 11 -23 19 -44 19 -48 0 -6 37 -91 52 -119 5 -10 11 -26 13 -35 5
-20 107 -268 124 -299 6 -12 9 -22 5 -22 -3 0 1 -11 10 -25 9 -14 14 -25 11
-25 -4 0 1 -12 9 -27 9 -16 47 -107 86 -203 39 -96 83 -204 98 -240 15 -36 27
-67 28 -70 0 -3 10 -27 22 -53 12 -27 22 -50 22 -52 0 -1 8 -20 17 -41 9 -22
18 -42 19 -46 1 -5 3 -10 4 -13 1 -3 3 -8 5 -12 1 -5 11 -30 23 -56 12 -27 22
-51 22 -54 0 -3 7 -21 16 -41 27 -62 32 -73 84 -202 29 -69 53 -129 54 -135 4
-13 21 -54 44 -108 11 -23 41 -96 67 -162 26 -66 56 -140 67 -164 11 -24 28
-67 39 -95 19 -48 66 -163 95 -231 7 -17 27 -66 44 -110 18 -44 38 -93 45
-110 8 -16 47 -113 89 -215 41 -102 89 -219 106 -260 17 -41 33 -83 35 -94 3
-10 8 -23 13 -30 5 -6 19 -36 30 -66 11 -30 51 -127 88 -215 36 -88 69 -170
71 -183 3 -12 9 -25 14 -28 5 -3 9 -14 9 -25 0 -10 5 -19 10 -19 6 0 10 -6 10
-13 0 -36 121 -294 166 -356 41 -55 117 -131 131 -131 7 0 13 -4 13 -9 0 -11
66 -38 135 -56 58 -15 300 -11 300 5 0 1 8 3 17 5 30 6 130 59 135 73 3 6 10
12 17 12 12 1 69 70 95 116 9 16 19 31 22 34 7 5 54 115 125 290 21 52 41 97
44 100 3 3 7 14 8 25 2 11 14 43 26 70 21 45 47 110 132 320 16 39 33 73 39
77 5 4 7 8 3 8 -4 0 7 33 23 73 17 39 32 81 35 91 2 11 9 23 16 28 7 4 9 8 4
8 -5 0 -4 6 2 13 6 6 11 15 11 20 0 4 7 22 14 40 8 17 20 49 27 70 8 20 17 37
20 37 3 0 6 9 7 19 1 10 10 39 21 63 17 36 133 320 157 383 5 11 7 23 7 28 -1
4 3 7 9 7 5 0 7 5 4 10 -3 6 -1 10 4 10 6 0 10 3 9 8 -2 4 9 36 24 72 84 203
164 399 167 412 1 4 22 53 46 108 24 55 45 104 46 108 1 4 6 18 12 32 5 14 12
34 14 44 2 11 11 28 20 38 9 10 13 18 8 18 -4 0 -2 6 4 13 6 8 8 17 4 20 -3 4
-1 7 5 7 7 0 11 3 10 8 -4 11 35 106 46 114 6 4 8 8 4 8 -4 0 3 25 17 55 13
30 21 55 18 55 -3 0 1 8 9 18 14 15 25 41 33 76 1 6 9 28 19 48 9 21 16 42 16
48 0 5 5 10 11 10 5 0 8 4 4 9 -3 5 -1 12 5 16 6 4 8 11 5 16 -4 5 -1 9 6 9 7
0 10 2 7 6 -3 3 15 55 41 117 65 154 64 151 66 163 2 6 21 52 43 102 22 50 39
92 37 94 -2 2 4 13 13 25 13 16 32 22 82 27 36 4 108 11 160 17 132 15 226 24
350 34 36 3 90 8 120 11 30 3 78 7 105 9 28 2 86 6 130 9 80 6 152 11 320 21
125 8 325 16 485 18 l135 2 1 -1777 c1 -1614 4 -1878 19 -1920 2 -7 7 -26 9
-41 3 -16 21 -62 42 -103 78 -158 215 -243 399 -249 64 -1 195 23 215 40 8 7
25 16 37 19 30 9 135 112 160 157 50 89 74 179 77 291 0 32 4 58 8 58 4 0 4
12 1 28 -3 15 -5 34 -4 42 1 20 1 220 -1 228 0 4 0 10 1 15 2 7 3 113 1 122 0
3 -1 48 -1 100 0 52 1 97 1 100 2 7 2 114 0 120 -1 3 -1 30 -1 60 0 30 0 57 1
60 1 3 1 30 1 60 0 30 0 57 -1 60 -1 3 -1 30 -1 60 0 30 0 57 1 60 1 3 1 30 1
60 0 30 0 57 -1 60 -3 13 -2 116 1 120 2 2 2 38 -1 80 -3 42 -3 78 -1 80 3 4
4 107 1 120 -1 3 -1 30 -1 60 0 30 0 57 1 60 1 3 1 30 1 60 0 30 0 57 -1 60
-2 7 -2 113 0 123 1 4 1 36 0 72 0 36 -1 70 -1 75 0 17 1 139 1 160 0 11 0 48
0 83 0 34 -1 66 -1 70 -1 4 -1 10 0 15 2 8 3 114 1 122 -1 3 -1 30 -1 60 0 30
0 57 1 60 1 3 1 30 1 60 0 30 0 57 -1 60 -2 7 -2 113 0 123 1 4 1 36 0 72 0
36 -1 70 -1 75 0 26 1 142 1 160 -1 170 -1 191 2 233 1 10 19 12 82 7 45 -3
108 -8 141 -10 33 -2 78 -7 100 -9 22 -3 65 -8 95 -11 30 -3 68 -8 84 -11 16
-3 53 -7 83 -10 31 -2 58 -6 62 -8 3 -2 30 -7 60 -11 30 -4 63 -9 75 -11 12
-3 32 -7 46 -10 14 -2 48 -9 75 -14 28 -5 64 -12 80 -15 17 -3 57 -12 90 -20
82 -21 81 -21 165 -45 41 -12 80 -23 85 -24 49 -13 102 -31 110 -38 5 -4 15
-8 22 -8 7 0 38 -12 70 -26 31 -15 62 -27 67 -29 6 -1 30 -10 53 -20 44 -19
47 -28 28 -95 -2 -8 -7 -31 -10 -50 -3 -19 -11 -55 -16 -80 -6 -25 -13 -56
-15 -70 -2 -14 -7 -36 -10 -50 -3 -14 -8 -34 -10 -45 -2 -11 -8 -42 -14 -70
-14 -68 -19 -95 -26 -130 -7 -39 -21 -53 -62 -60 -44 -7 -136 -52 -164 -79
-92 -89 -122 -180 -120 -361 1 -66 3 -127 5 -135 24 -96 51 -138 117 -181 33
-21 49 -38 46 -48 -7 -26 -25 -113 -30 -146 -6 -36 -13 -70 -20 -93 -3 -9 -8
-35 -11 -57 -4 -22 -8 -48 -11 -57 -7 -24 -14 -59 -20 -93 -6 -39 -12 -70 -14
-70 -2 0 -6 -19 -14 -65 -3 -19 -8 -45 -11 -57 -13 -56 -46 -219 -51 -248 -2
-11 -5 -27 -7 -35 -3 -13 -8 -37 -23 -110 -1 -8 -10 -49 -19 -90 -9 -41 -18
-84 -20 -95 -2 -11 -6 -30 -8 -41 -3 -12 -8 -37 -11 -55 -3 -19 -13 -65 -22
-104 -9 -38 -17 -79 -19 -90 -7 -56 -21 -133 -25 -137 -3 -4 -8 -66 -13 -163
-5 -80 -2 -114 18 -203 17 -72 100 -168 181 -208 79 -39 117 -46 247 -49 193
-4 315 33 401 119 44 44 90 125 99 177 5 27 18 93 23 124 4 21 11 62 19 110 3
17 10 57 16 90 6 33 12 74 14 90 2 17 4 30 5 30 1 0 3 11 5 25 4 30 20 133 29
175 2 11 7 40 11 65 4 25 9 54 11 65 2 11 6 36 9 55 2 19 9 60 15 90 6 30 13
73 15 95 3 22 10 65 17 95 6 30 12 69 14 85 1 17 5 41 9 55 3 14 8 41 10 60 2
19 7 46 10 60 2 13 7 40 10 60 5 34 8 53 20 110 2 14 7 45 10 70 3 25 8 52 10
60 2 8 6 33 9 55 4 22 9 54 13 70 4 17 6 38 4 48 -1 11 4 17 16 17 67 1 192 9
213 14 14 3 34 8 45 10 11 3 35 9 53 15 17 5 32 7 32 5 0 -3 10 2 22 10 12 9
28 16 35 16 14 0 145 61 153 71 3 3 16 12 30 19 44 23 141 101 197 159 50 53
173 220 173 237 0 4 6 15 14 23 15 17 62 131 70 171 3 14 15 65 26 113 11 49
18 92 15 97 -3 5 -2 11 3 14 24 14 18 240 -9 340 -6 23 -13 48 -15 56 -16 70
-76 193 -143 295 -50 77 -255 286 -323 330 -8 6 -40 26 -70 46 -30 20 -81 49
-115 64 l-60 28 8 36 c4 20 11 61 14 91 4 30 9 58 11 61 2 3 6 21 9 40 16 94
22 122 35 179 6 25 13 59 15 75 2 17 4 30 5 30 2 0 6 16 14 60 3 17 8 41 11
55 3 14 8 36 10 50 2 14 7 36 10 50 5 25 28 131 30 140 3 14 19 98 21 115 1
11 3 21 4 23 3 3 4 8 13 57 22 115 29 145 37 145 4 0 24 -46 45 -102 20 -57
40 -112 45 -123 4 -11 31 -85 60 -165 28 -80 69 -193 91 -251 21 -59 39 -109
39 -112 0 -2 8 -22 17 -43 9 -22 17 -43 17 -49 1 -9 13 -43 36 -100 17 -42 40
-105 40 -110 0 -3 7 -21 15 -41 8 -20 15 -39 15 -42 0 -2 41 -118 91 -256 50
-138 113 -314 141 -391 27 -77 54 -149 59 -160 5 -11 11 -29 14 -40 2 -11 34
-101 71 -200 36 -99 67 -184 68 -190 3 -10 6 -17 33 -90 24 -63 92 -255 109
-305 8 -25 19 -54 24 -65 5 -11 23 -60 40 -110 17 -49 38 -108 47 -130 8 -22
30 -83 49 -135 39 -111 52 -147 93 -256 16 -45 27 -85 24 -88 -4 -3 -1 -6 5
-6 7 0 12 -6 12 -12 0 -7 16 -56 36 -108 19 -52 37 -102 39 -110 5 -20 44
-130 55 -155 11 -27 22 -58 26 -70 1 -5 30 -86 64 -180 34 -93 63 -174 65
-180 1 -5 6 -19 10 -30 9 -23 46 -124 64 -175 7 -19 30 -84 52 -145 22 -60 47
-130 56 -155 8 -25 20 -51 25 -57 6 -7 8 -13 4 -13 -5 0 10 -46 34 -105 5 -11
21 -54 36 -95 42 -116 70 -164 127 -223 43 -45 120 -94 162 -103 6 -1 24 -5
40 -9 54 -14 257 -13 310 1 101 27 140 49 212 124 43 44 114 174 129 235 4 17
9 35 13 40 3 6 6 15 7 20 1 6 9 28 17 50 38 100 90 245 108 300 11 33 24 69
28 80 11 25 45 117 47 128 1 4 3 9 4 12 1 3 3 9 4 14 0 5 4 13 9 17 4 4 7 14
7 22 0 8 6 28 14 45 13 30 49 126 51 137 8 32 19 67 25 75 3 6 21 53 39 105
18 52 35 102 38 110 3 8 7 20 9 25 1 6 8 24 15 40 6 17 13 35 15 40 4 15 148
420 234 655 23 63 43 123 45 133 2 9 7 23 12 30 4 6 8 17 9 22 2 8 18 54 88
250 2 6 4 12 5 15 1 3 38 104 82 225 44 121 82 228 84 237 2 9 8 25 13 35 6
10 10 20 10 23 1 3 3 12 6 20 3 8 16 47 30 85 13 39 36 104 51 145 14 41 29
82 32 90 3 8 7 18 8 23 2 4 4 9 5 12 1 3 3 8 5 13 1 4 4 14 8 22 3 8 13 35 21
60 16 47 76 216 95 263 6 15 8 27 5 27 -4 0 -2 6 3 13 5 6 17 32 25 57 9 25
30 86 48 135 17 50 35 99 40 110 22 54 39 105 35 105 -3 0 0 10 7 23 20 36 56
146 50 151 -3 4 0 6 6 6 7 0 12 6 12 13 0 12 52 162 112 322 17 44 31 85 33
90 1 6 4 17 8 25 3 8 18 51 33 95 15 44 32 91 37 105 34 87 54 150 49 154 -3
4 0 6 6 6 7 0 11 3 10 8 -3 14 14 62 22 62 10 0 16 -19 25 -75 4 -22 9 -51 11
-65 3 -14 6 -32 8 -40 1 -8 6 -37 10 -65 12 -76 12 -78 19 -105 4 -14 8 -38
11 -55 6 -42 25 -154 32 -190 3 -16 7 -39 9 -50 1 -11 10 -63 20 -115 17 -94
23 -130 29 -181 2 -15 7 -42 12 -60 4 -19 8 -41 9 -49 1 -8 6 -35 10 -60 4
-25 9 -54 11 -65 1 -11 3 -20 4 -20 2 0 7 -28 14 -80 2 -22 6 -40 7 -40 2 0 5
-18 14 -85 3 -25 10 -61 15 -80 5 -19 11 -53 15 -75 3 -22 10 -67 16 -100 5
-33 12 -73 15 -90 2 -16 7 -41 11 -55 3 -14 7 -38 9 -55 2 -16 6 -41 9 -55 3
-14 12 -68 21 -120 15 -93 21 -125 29 -165 2 -11 9 -49 15 -85 5 -36 12 -76
15 -90 6 -28 9 -46 25 -140 15 -88 18 -105 20 -105 1 0 3 -16 5 -35 3 -19 7
-46 10 -60 5 -24 21 -119 32 -185 2 -16 6 -41 9 -55 5 -23 9 -47 19 -105 13
-81 23 -134 28 -160 8 -36 28 -159 30 -182 1 -13 4 -23 7 -23 3 0 5 -10 6 -22
0 -13 4 -43 8 -68 4 -25 9 -54 11 -65 2 -11 6 -36 10 -55 4 -19 11 -57 15 -85
5 -27 12 -63 15 -80 9 -50 15 -88 21 -133 7 -48 8 -56 17 -92 4 -14 9 -43 12
-64 3 -21 8 -48 10 -60 3 -12 7 -34 10 -51 7 -51 15 -99 22 -125 3 -14 7 -34
8 -45 3 -34 16 -109 20 -115 2 -3 6 -30 10 -60 3 -30 11 -74 16 -98 5 -24 7
-48 4 -53 -4 -5 -2 -9 2 -9 5 0 9 -9 10 -21 3 -29 34 -213 38 -219 2 -3 6 -29
10 -59 7 -55 10 -75 20 -121 3 -14 7 -36 10 -49 9 -46 27 -96 53 -140 27 -48
89 -111 110 -111 6 0 12 -3 12 -8 0 -14 89 -46 165 -60 50 -8 270 -9 310 0
119 25 226 99 294 203 14 22 28 42 31 45 8 7 89 185 105 231 8 22 21 54 29 72
7 17 40 97 71 177 31 80 62 156 68 170 6 14 11 27 12 30 1 3 5 14 10 25 4 11
32 81 62 155 29 74 58 144 62 155 5 11 21 52 36 90 15 39 33 84 40 100 43 106
59 151 57 158 -1 4 2 7 8 7 5 0 10 6 10 13 0 8 25 74 55 147 30 73 55 139 55
147 0 7 5 13 12 13 6 0 8 3 5 7 -4 3 -3 11 2 17 5 6 14 29 21 51 7 22 20 56
28 75 9 19 44 105 78 190 l62 155 58 -4 c33 -2 570 -4 1194 -3 624 0 1143 -2
1152 -4 9 -3 22 -22 29 -42 6 -20 15 -41 18 -47 4 -5 17 -37 30 -70 28 -73 35
-90 55 -137 9 -20 16 -40 16 -45 1 -4 9 -26 20 -48 11 -22 19 -44 20 -48 0 -5
6 -23 14 -40 8 -18 26 -63 41 -102 15 -38 33 -83 40 -100 38 -90 55 -135 55
-149 0 -8 4 -16 10 -18 5 -2 11 -12 13 -23 2 -11 9 -31 14 -45 6 -14 54 -135
108 -270 53 -135 101 -254 106 -265 4 -11 36 -90 69 -175 34 -85 65 -164 70
-175 4 -11 18 -45 30 -75 42 -103 121 -282 130 -290 3 -3 11 -17 18 -31 8 -14
25 -39 39 -55 14 -16 33 -38 42 -49 111 -133 401 -174 596 -85 25 11 45 25 45
30 0 6 5 10 11 10 20 0 76 65 104 120 22 44 28 69 29 137 2 46 0 83 -3 83 -3
0 -5 15 -5 32 1 18 -1 38 -5 43 -3 6 -6 15 -6 20 -1 16 -26 96 -35 114 -5 9
-36 81 -70 161 -34 80 -73 169 -86 198 -13 29 -24 54 -24 56 0 2 -10 25 -22
52 -12 27 -23 51 -23 54 -1 3 -13 31 -28 64 -15 32 -27 60 -27 62 0 2 -11 27
-24 56 -22 49 -67 153 -151 348 -18 41 -41 95 -52 120 -19 40 -42 95 -105 240
-10 25 -23 54 -28 65 -8 18 -125 285 -136 311 -3 7 515 11 1803 11 994 0 1820
3 1836 6 15 3 27 1 27 -4 0 -5 -4 -9 -9 -9 -5 0 -14 -13 -21 -30 -7 -16 -16
-30 -21 -30 -4 0 -11 -9 -14 -20 -3 -11 -12 -26 -18 -33 -23 -24 -97 -136 -97
-146 0 -5 -3 -11 -8 -13 -11 -5 -262 -377 -262 -389 0 -4 -3 -9 -8 -11 -10 -4
-152 -217 -152 -227 0 -5 -7 -11 -15 -15 -8 -3 -15 -12 -15 -21 0 -8 -4 -15
-10 -15 -5 0 -10 -4 -10 -9 0 -11 -171 -265 -182 -269 -4 -2 -6 -7 -3 -11 2
-5 -7 -19 -20 -31 -14 -13 -25 -27 -25 -31 0 -7 -145 -226 -167 -254 -5 -5
-19 -27 -32 -48 -13 -21 -30 -44 -38 -52 -8 -8 -11 -15 -8 -15 4 0 -6 -17 -22
-37 -54 -70 -144 -213 -157 -252 -21 -57 -13 -138 19 -209 15 -34 32 -62 36
-62 5 0 9 -6 9 -14 0 -8 8 -21 18 -28 9 -7 30 -28 45 -46 15 -19 27 -31 27
-27 0 3 10 -5 23 -18 26 -28 130 -99 192 -132 28 -15 106 -46 130 -52 11 -2
31 -7 45 -10 33 -7 118 -6 154 2 36 7 125 67 147 97 9 13 49 73 89 133 41 61
79 113 84 117 6 4 7 8 3 8 -5 0 -2 7 5 15 24 26 35 41 39 51 6 15 143 218 157
232 6 7 12 17 12 22 0 5 6 15 13 22 23 25 77 106 77 116 0 6 4 12 8 14 8 3
120 165 137 199 5 10 13 19 17 19 5 0 8 6 8 13 0 7 8 22 18 33 28 33 102 142
102 153 0 5 3 11 8 13 4 2 43 57 87 123 43 66 83 121 87 123 4 2 8 10 8 18 0
8 5 14 11 14 5 0 7 5 4 10 -3 6 -2 10 3 10 5 0 30 35 57 78 27 42 51 79 55 82
3 3 50 73 105 155 55 83 102 152 105 155 3 3 72 106 155 230 82 124 153 227
157 228 4 2 8 8 8 13 0 4 29 50 64 102 55 81 79 124 81 149 0 3 3 9 6 13 6 5
3 120 -4 155 -9 42 -27 77 -113 208 -52 78 -94 147 -94 152 0 6 -4 10 -10 10
-5 0 -10 5 -10 10 0 6 -5 16 -11 23 -5 7 -38 55 -71 107 -34 52 -88 135 -120
184 -32 49 -58 92 -58 96 0 3 -9 16 -20 28 -12 12 -17 22 -13 22 4 0 3 4 -2 8
-15 10 -165 240 -165 252 0 6 -3 10 -7 10 -5 0 -24 27 -42 60 -19 33 -39 60
-43 60 -4 0 -8 7 -8 15 0 8 -4 15 -10 15 -5 0 -10 4 -10 10 0 5 -50 85 -110
177 -61 92 -114 175 -117 183 -4 8 -11 20 -16 25 -4 6 -41 62 -82 125 -41 63
-79 120 -85 127 -5 7 -15 24 -22 38 -6 14 -15 25 -20 25 -4 0 -8 5 -8 10 0 6
-27 51 -60 101 -33 49 -60 92 -60 95 0 3 -18 29 -40 58 -22 29 -40 56 -40 59
0 13 -271 418 -297 445 -48 49 -136 80 -213 76 -59 -4 -101 -10 -120 -18 -8
-3 -35 -13 -60 -21 -65 -23 -168 -81 -225 -129 -66 -54 -135 -124 -135 -136 0
-5 -8 -14 -17 -19 -10 -6 -14 -11 -9 -11 5 0 2 -8 -8 -19 -29 -32 -55 -121
-52 -181 3 -52 27 -117 48 -131 5 -3 10 -10 10 -15 0 -5 12 -27 27 -49 14 -22
31 -48 36 -56 49 -79 112 -174 123 -184 6 -8 12 -16 12 -20 0 -4 23 -40 50
-81 27 -41 50 -79 50 -84 0 -6 4 -10 9 -10 5 0 14 -13 21 -30 7 -16 15 -30 19
-30 3 0 17 -20 31 -45 14 -25 28 -45 32 -45 5 0 8 -5 8 -10 0 -6 32 -58 70
-115 39 -57 70 -108 70 -113 0 -5 9 -17 20 -27 11 -10 20 -24 20 -32 0 -7 5
-13 11 -13 5 0 8 -4 5 -9 -4 -5 -3 -11 2 -13 8 -3 32 -39 140 -208 34 -52 65
-99 70 -105 4 -5 18 -28 31 -50 14 -22 33 -50 44 -62 11 -13 17 -23 13 -23 -4
0 4 -15 18 -33 15 -19 26 -37 26 -41 0 -4 9 -16 20 -28 11 -12 20 -27 20 -32
0 -13 -208 -15 -228 -3 -6 5 -12 5 -12 0 0 -4 -41 -8 -90 -8 -50 0 -90 4 -90
8 0 4 -8 4 -17 -1 -22 -10 -93 -9 -111 1 -6 5 -12 5 -12 0 0 -6 -168 -8 -335
-3 -5 0 -34 -1 -63 -2 -28 -2 -52 1 -52 6 0 5 -6 4 -12 -1 -7 -5 -33 -8 -58
-6 -58 4 -48 4 -168 0 -57 -1 -108 1 -115 5 -6 3 -19 2 -29 -3 -13 -7 -18 -6
-18 2 0 7 -5 8 -12 3 -7 -5 -49 -8 -93 -7 -106 3 -95 3 -215 3 -58 0 -112 0
-120 0 -8 0 -39 -1 -68 -2 -28 -2 -52 1 -52 6 0 5 -6 4 -12 -1 -16 -11 -148
-11 -165 0 -7 5 -13 5 -13 0 0 -4 -41 -8 -90 -8 -50 0 -90 4 -90 8 0 4 -8 4
-17 -1 -22 -10 -93 -9 -111 1 -6 5 -12 5 -12 0 0 -7 -54 -7 -255 -3 -5 0 -56
-1 -113 -3 -57 -1 -108 1 -115 5 -6 3 -19 2 -29 -3 -13 -7 -18 -6 -18 2 0 7
-5 8 -12 3 -7 -5 -49 -8 -93 -7 -93 3 -95 3 -180 3 -36 0 -71 0 -77 0 -7 0
-59 -1 -116 -3 -57 -1 -108 1 -115 5 -6 3 -19 2 -29 -3 -13 -7 -18 -6 -18 2 0
7 -5 8 -12 3 -7 -5 -44 -9 -83 -9 l-70 0 -35 71 c-40 80 -70 148 -70 157 0 3
-13 34 -29 69 -55 120 -65 143 -66 148 -2 7 -15 37 -70 160 -26 58 -47 111
-48 118 0 6 -5 12 -10 12 -6 0 -8 2 -5 6 3 3 -7 32 -23 65 -16 32 -29 61 -29
64 0 2 -11 28 -24 57 -39 87 -104 237 -111 258 -2 5 -19 45 -50 115 -7 17 -27
61 -44 98 -17 38 -31 70 -31 72 0 3 -11 28 -24 57 -13 29 -37 85 -54 123 -16
39 -38 88 -48 110 -9 22 -18 42 -19 45 0 3 -11 27 -23 54 -12 27 -22 50 -22
53 0 2 -16 38 -35 79 -19 41 -35 76 -35 79 0 2 -14 35 -31 72 -17 38 -32 73
-33 78 -1 6 -17 42 -35 80 -18 39 -34 75 -35 80 -1 6 -19 46 -39 89 -20 43
-37 83 -37 88 0 4 -4 16 -9 26 -6 9 -21 42 -34 72 -13 30 -39 89 -57 130 -74
168 -165 278 -279 339 -33 17 -63 31 -66 31 -3 -1 -18 1 -33 4 -65 15 -81 16
-162 16 -82 1 -99 -1 -165 -17 -39 -9 -36 -8 -68 -21 -16 -7 -31 -12 -33 -12
-20 0 -154 -122 -154 -140 0 -4 -4 -10 -9 -12 -12 -5 -83 -134 -111 -203 -14
-33 -29 -63 -33 -66 -5 -3 -8 -9 -8 -13 1 -10 -9 -37 -35 -94 -13 -29 -24 -55
-24 -57 0 -3 -18 -47 -41 -97 -52 -120 -53 -121 -89 -203 -18 -38 -33 -74 -34
-80 -1 -5 -8 -20 -14 -32 -7 -13 -10 -23 -6 -23 3 0 2 -6 -4 -13 -6 -7 -33
-64 -60 -127 -27 -63 -59 -137 -72 -165 -12 -27 -23 -54 -24 -60 -1 -5 -14
-36 -29 -69 -15 -32 -27 -60 -27 -62 0 -2 -13 -33 -30 -69 -16 -36 -30 -67
-30 -69 0 -2 -14 -34 -32 -72 -17 -38 -33 -74 -34 -80 -1 -5 -14 -37 -29 -70
-15 -32 -28 -65 -28 -71 0 -7 -4 -13 -9 -13 -4 0 -8 -5 -8 -11 0 -5 -11 -35
-25 -65 -14 -30 -25 -57 -25 -59 0 -3 -10 -27 -21 -53 -47 -103 -67 -150 -90
-207 -13 -33 -27 -61 -31 -63 -5 -2 -8 -11 -8 -21 0 -9 -7 -26 -15 -37 -8 -10
-15 -24 -15 -31 0 -6 -16 -46 -35 -87 -19 -42 -35 -79 -35 -82 0 -5 -10 -29
-67 -154 -14 -30 -34 -79 -45 -107 -10 -29 -24 -55 -29 -58 -5 -4 -9 -13 -9
-20 0 -8 -11 -38 -24 -67 -42 -93 -63 -141 -106 -243 -23 -55 -50 -118 -60
-140 -10 -22 -65 -150 -123 -285 -58 -135 -116 -270 -130 -300 -23 -53 -39
-90 -42 -100 -1 -3 -9 -23 -19 -45 -20 -45 -32 -75 -36 -90 -2 -5 -14 -31 -27
-56 -13 -26 -23 -52 -23 -58 0 -6 -5 -11 -11 -11 -5 0 -8 -3 -5 -8 2 -4 -9
-36 -25 -70 -16 -35 -32 -74 -35 -89 -6 -20 -9 -22 -15 -10 -7 12 -34 134 -55
247 -3 14 -14 70 -26 125 -12 55 -22 112 -22 128 -1 15 -3 27 -6 27 -3 0 -7 8
-8 18 -3 29 -7 47 -13 57 -4 6 -5 18 -4 28 2 9 -1 17 -6 17 -6 0 -8 4 -5 9 4
5 -1 40 -10 78 -9 37 -18 79 -20 93 -3 14 -12 59 -20 100 -9 41 -18 86 -20
100 -2 14 -10 48 -16 75 -7 28 -12 55 -13 60 -1 6 -4 26 -9 45 -4 19 -9 44
-11 55 -2 11 -4 20 -5 20 -1 0 -3 14 -5 30 -2 17 -7 41 -11 55 -3 14 -8 36
-11 50 -3 20 -23 114 -39 185 -2 11 -7 34 -10 50 -3 17 -12 64 -21 105 -8 41
-17 86 -19 100 -3 14 -9 41 -14 60 -5 19 -12 52 -16 74 -7 44 -9 55 -23 116
-5 25 -13 61 -16 80 -3 19 -10 51 -15 70 -5 19 -11 49 -14 65 -2 17 -14 75
-25 130 -12 55 -24 111 -26 125 -3 14 -10 45 -15 70 -5 25 -12 56 -14 70 -2
14 -9 46 -15 73 -6 26 -14 64 -17 85 -3 20 -12 61 -20 90 -7 30 -13 57 -13 60
1 4 1 9 -1 12 -1 3 -3 16 -6 30 -2 14 -13 66 -23 115 -11 50 -22 101 -24 115
-3 14 -8 36 -11 50 -4 14 -8 36 -11 50 -6 31 -19 98 -34 165 -6 28 -12 59 -15
70 -4 20 -19 102 -22 120 -1 6 -3 12 -4 15 -1 3 -3 12 -5 20 -1 8 -10 51 -19
95 -10 44 -19 89 -21 100 -18 110 -64 251 -103 315 -12 19 -26 44 -31 55 -6
11 -26 38 -45 60 -20 22 -36 43 -36 48 0 4 -4 5 -10 2 -5 -3 -10 -2 -10 3 0
20 -194 146 -220 143 -3 0 -21 4 -40 10 -87 26 -181 37 -305 34 -71 -2 -143
-6 -160 -9 -107 -22 -265 -86 -265 -108 0 -4 -6 -8 -13 -8 -15 0 -89 -76 -126
-128 -29 -42 -77 -140 -98 -201 -8 -25 -20 -57 -26 -71 -5 -14 -11 -30 -12
-36 -2 -7 -17 -52 -35 -100 -43 -121 -71 -200 -115 -324 -20 -58 -39 -112 -42
-120 -3 -8 -7 -19 -9 -25 -1 -8 -36 -104 -80 -225 -3 -8 -5 -16 -4 -18 0 -1
-7 -16 -15 -32 -8 -16 -16 -33 -16 -37 0 -20 -14 -62 -35 -110 -13 -29 -20
-53 -17 -53 3 0 0 -7 -7 -15 -7 -8 -9 -15 -6 -15 4 0 1 -10 -6 -22 -6 -13 -13
-29 -14 -35 -2 -13 -29 -91 -44 -128 -12 -30 -132 -368 -135 -380 -1 -5 -5
-17 -8 -25 -15 -33 -99 -277 -104 -300 -3 -14 -9 -27 -12 -30 -3 -3 -24 -57
-45 -120 -60 -176 -73 -210 -80 -217 -3 -3 -6 -15 -6 -25 0 -10 -4 -26 -10
-36 -9 -17 -118 -323 -125 -352 -2 -8 -4 -17 -5 -20 -1 -3 -2 -8 -1 -12 0 -5
-4 -8 -10 -8 -5 0 -8 -4 -4 -9 3 -5 1 -12 -5 -16 -5 -3 -10 -15 -10 -26 0 -10
-4 -27 -9 -37 -6 -9 -36 -91 -67 -182 -31 -91 -62 -171 -67 -178 -5 -7 -7 -15
-4 -19 3 -3 -1 -19 -9 -35 -9 -17 -17 -37 -19 -46 -2 -10 -18 -55 -36 -102
-17 -47 -33 -97 -36 -112 -3 -16 -10 -28 -16 -28 -6 0 -7 -3 -4 -6 3 -4 2 -15
-4 -26 -6 -11 -12 -27 -14 -36 -2 -9 -36 -107 -75 -217 -40 -110 -73 -204 -75
-210 -1 -5 -5 -19 -9 -30 -5 -11 -12 -31 -17 -45 -5 -14 -14 -38 -20 -55 -7
-16 -13 -34 -15 -40 -3 -13 -72 -206 -81 -225 -3 -8 -8 -24 -10 -35 -4 -21
-20 -42 -27 -34 -2 2 -20 51 -40 109 -21 58 -40 112 -43 120 -3 8 -8 24 -10
34 -2 11 -8 25 -13 31 -5 7 -7 15 -3 18 3 4 0 7 -7 7 -7 0 -11 3 -7 6 3 3 -1
22 -8 42 -55 153 -100 278 -121 342 -14 41 -29 84 -34 95 -12 29 -44 119 -46
128 -1 4 -3 9 -4 12 -1 3 -3 8 -5 13 -1 4 -5 16 -9 27 -4 11 -12 34 -18 50 -5
17 -14 39 -18 50 -5 11 -18 49 -30 85 -12 36 -25 74 -30 85 -12 30 -23 59 -25
71 -3 11 -58 168 -72 204 -4 8 -7 17 -7 20 -1 5 -63 182 -74 210 -3 8 -6 17
-7 20 -1 3 -7 18 -13 33 -7 16 -12 34 -12 42 0 8 -4 17 -10 20 -5 3 -10 15
-10 26 0 10 -4 27 -10 37 -5 9 -23 58 -40 107 -17 50 -33 97 -37 105 -3 8 -7
20 -8 25 -2 6 -14 40 -29 78 -14 37 -25 68 -25 70 0 1 -4 13 -9 27 -5 14 -35
99 -66 190 -31 91 -61 174 -65 185 -11 26 -44 117 -47 130 -3 10 -62 175 -90
250 -8 22 -17 47 -19 55 -6 22 -108 310 -145 410 -17 47 -33 90 -34 95 -2 6
-6 17 -9 25 -28 73 -50 140 -54 163 -3 15 -9 30 -14 33 -5 3 -9 13 -9 22 0 9
-7 30 -15 46 -8 15 -15 35 -15 42 0 8 -4 22 -10 32 -9 16 -109 296 -114 317
-1 6 -4 15 -8 20 -3 6 -13 33 -21 60 -16 51 -62 183 -77 220 -36 90 -49 117
-77 166 -31 54 -131 169 -146 169 -4 0 -25 11 -45 25 -39 26 -127 60 -178 70
-16 2 -40 8 -54 11 -39 9 -300 12 -345 3z m8855 -1159 c12 -30 26 -64 31 -75
5 -11 20 -51 35 -90 14 -38 32 -83 39 -100 7 -16 23 -57 36 -90 13 -33 27 -64
31 -69 4 -6 8 -16 8 -23 0 -8 9 -33 20 -55 11 -23 20 -45 20 -50 0 -5 9 -27
19 -51 10 -23 74 -181 141 -352 67 -170 128 -323 135 -340 7 -16 21 -50 30
-75 9 -25 21 -54 26 -65 4 -11 22 -56 39 -100 17 -44 36 -91 42 -105 6 -14 15
-35 19 -47 13 -32 29 -73 44 -108 46 -110 85 -217 81 -224 -3 -4 -20 -6 -38
-4 -37 4 -44 5 -73 3 -32 -1 -88 -1 -140 0 -5 0 -56 -1 -113 -3 -57 -1 -108 1
-115 5 -6 3 -19 2 -29 -3 -13 -7 -18 -6 -18 2 0 7 -5 8 -12 3 -7 -5 -49 -8
-93 -7 -106 3 -95 3 -215 3 -58 0 -112 0 -120 0 -8 0 -39 -1 -68 -2 -28 -2
-52 1 -52 6 0 5 -6 4 -12 -1 -16 -11 -148 -11 -165 0 -7 5 -13 5 -13 0 0 -4
-35 -7 -77 -6 -100 4 -83 4 -196 1 -61 -2 -102 1 -108 8 -5 6 -1 25 11 47 11
20 21 40 21 44 1 5 5 18 10 31 5 13 9 25 9 27 0 2 10 25 22 52 12 26 23 53 23
58 2 9 11 33 38 95 6 14 11 27 12 30 1 3 7 19 14 35 7 17 28 71 48 120 19 50
38 95 41 100 4 6 7 15 8 20 1 6 8 24 15 40 7 17 13 32 14 35 3 9 17 44 33 80
8 19 16 40 18 45 1 6 25 66 54 135 28 69 52 130 54 135 1 6 10 27 19 49 9 21
17 40 17 42 0 1 4 13 9 26 5 13 8 25 8 28 0 3 6 16 13 30 8 14 15 27 15 30 1
3 9 22 18 44 9 21 17 40 17 42 0 1 5 15 12 31 6 15 12 30 13 33 6 17 19 50 35
85 10 22 35 83 55 135 20 52 42 106 47 120 6 14 12 30 14 35 18 57 30 85 36
85 5 0 8 8 8 18 1 9 9 35 20 57 11 22 19 47 20 55 0 23 16 0 40 -60z m-9023
-1592 c-3 -8 -6 -5 -6 6 -1 11 2 17 5 13 3 -3 4 -12 1 -19z m-20 -110 c-3 -8
-6 -5 -6 6 -1 11 2 17 5 13 3 -3 4 -12 1 -19z m-9 -87 c-1 -16 -5 -28 -9 -26
-6 5 0 55 7 55 3 0 3 -13 2 -29z m-23 -136 c-8 -49 -18 -91 -21 -94 -4 -3 -4
8 -1 24 3 17 11 61 18 98 6 37 13 66 16 64 2 -2 -3 -44 -12 -92z m-18 -120 c0
-8 -4 -12 -9 -9 -4 3 -8 9 -8 15 0 5 4 9 8 9 5 0 9 -7 9 -15z"/>
</g>
</svg>
